<svg xmlns="http://www.w3.org/2000/svg" viewBox="0 0 192 192"><path fill="#1d1d1b" d="M108.969 151.196c4.295-3.671 7.03-9.116 7.03-15.196 0-11.028-8.97-20-20-20s-20 8.972-20 20c0 6.08 2.737 11.525 7.032 15.196C74.105 155.882 68 165.24 68 176h8c0-11.028 8.971-20 20-20s20 8.972 20 20h8c0-10.761-6.106-20.118-15.031-24.804zM83.999 136c0-6.617 5.384-12 12-12s12 5.383 12 12-5.382 12-12 12-12-5.383-12-12zm60.97-84.804c4.295-3.671 7.03-9.116 7.03-15.196 0-11.028-8.97-20-20-20s-20 8.972-20 20c0 6.08 2.737 11.525 7.032 15.196C110.105 55.882 104 65.24 104 76h8c0-11.028 8.971-20 20-20s20 8.972 20 20h8c0-10.761-6.106-20.118-15.031-24.804zM119.999 36c0-6.617 5.384-12 12-12s12 5.383 12 12-5.382 12-12 12-12-5.383-12-12zM72.97 51.196c4.295-3.671 7.03-9.116 7.03-15.196 0-11.028-8.97-20-20-20s-20 8.972-20 20c0 6.08 2.737 11.525 7.032 15.196C38.105 55.882 32 65.24 32 76h8c0-11.028 8.971-20 20-20s20 8.972 20 20h8c0-10.761-6.106-20.118-15.031-24.804zM47.999 36c0-6.617 5.384-12 12-12s12 5.383 12 12-5.382 12-12 12-12-5.383-12-12zm112.97 83.196c4.295-3.671 7.03-9.116 7.03-15.196 0-11.028-8.97-20-20-20s-20 8.972-20 20c0 6.08 2.737 11.525 7.032 15.196a28.212 28.212 0 0 0-10.652 9.808l5.686 6.202C133.327 128.58 140.13 124 148 124c11.028 0 20 8.972 20 20h8c0-10.761-6.106-20.118-15.031-24.804zM147.999 116c-6.616 0-12-5.383-12-12s5.384-12 12-12 12 5.383 12 12-5.382 12-12 12zm-80.272 13.163a28.216 28.216 0 0 0-10.759-9.967C61.264 115.525 64 110.08 64 104c0-11.028-8.972-20-20-20s-20 8.972-20 20c0 6.08 2.736 11.525 7.031 15.196C22.105 123.882 16 133.24 16 144h8c0-11.028 8.971-20 20-20 7.941 0 14.795 4.664 18.022 11.386l5.705-6.223zM44 116c-6.617 0-12-5.383-12-12s5.383-12 12-12 12 5.383 12 12-5.383 12-12 12z"/></svg>